<svg preserveAspectRatio="xMidYMid meet" viewBox="0 0 88 123" fill="none" xmlns="http://www.w3.org/2000/svg">
<path id="Union" d="M61.5996 123H26.4004L44 87.8574L61.5996 123ZM44 0C68.3003 0 88 19.6678 88 43.9287C87.9999 68.1895 68.3003 87.8574 44 87.8574C19.6997 87.8574 7.64057e-05 68.1895 0 43.9287C0 19.6678 19.6997 0 44 0ZM44 17.5713C29.4202 17.5713 17.5996 29.3725 17.5996 43.9287C17.5997 58.4848 29.4202 70.2861 44 70.2861C58.5798 70.2861 70.4003 58.4848 70.4004 43.9287C70.4004 29.3725 58.5798 17.5713 44 17.5713Z" fill="var(--fill-0, white)"/>
</svg>
