<svg preserveAspectRatio="xMidYMid meet" viewBox="0 0 329.142 34.5605" fill="none" xmlns="http://www.w3.org/2000/svg">
<path id="Union" d="M114.704 0C117.36 2.4511e-05 119.824 0.512202 122.096 1.53613C124.368 2.56013 126.272 4.0163 127.808 5.9043L124.063 9.64844C123.071 8.24044 121.744 7.16764 120.08 6.43164C118.416 5.66368 116.624 5.2803 114.704 5.28027C112.4 5.28027 110.368 5.79249 108.608 6.81641C106.88 7.8084 105.536 9.20019 104.576 10.9922C103.616 12.7842 103.136 14.8644 103.136 17.2324C103.136 19.6003 103.616 21.6966 104.576 23.5205C105.568 25.3122 106.896 26.7202 108.56 27.7441C110.223 28.7681 112.112 29.2802 114.224 29.2803C116.464 29.2803 118.384 28.8801 119.984 28.0801C121.616 27.2481 122.864 26.0315 123.728 24.4316C124.269 23.4083 124.642 22.2405 124.844 20.9277H114.128V15.8877H130.736V16.6562C130.736 20.656 130.016 23.9838 128.576 26.6396C127.168 29.2956 125.232 31.2798 122.768 32.5918C120.304 33.9037 117.488 34.5605 114.32 34.5605C112.016 34.5605 109.84 34.1118 107.792 33.2158C105.744 32.3199 103.952 31.0884 102.416 29.5205C100.88 27.9205 99.6636 26.08 98.7676 24C97.9037 21.8882 97.4717 19.6322 97.4717 17.2324C97.4717 14.8324 97.9036 12.5917 98.7676 10.5117C99.6636 8.43179 100.88 6.608 102.416 5.04004C103.984 3.44009 105.808 2.20774 107.888 1.34375C110 0.44775 112.272 0 114.704 0ZM141.366 21.2637C141.366 22.8957 141.702 24.3201 142.374 25.5361C143.078 26.7201 144.022 27.6483 145.206 28.3203C146.39 28.9603 147.718 29.2803 149.19 29.2803C150.694 29.2802 152.022 28.9602 153.174 28.3203C154.326 27.6483 155.238 26.7201 155.91 25.5361C156.582 24.3202 156.918 22.9123 156.918 21.3125V0.480469H162.438V21.3604C162.438 23.8882 161.862 26.144 160.71 28.1279C159.558 30.1119 157.99 31.68 156.006 32.832C154.022 33.9839 151.75 34.5605 149.19 34.5605C146.662 34.5605 144.39 33.984 142.374 32.832C140.358 31.68 138.758 30.1119 137.574 28.1279C136.422 26.1121 135.846 23.8403 135.846 21.3125V0.480469H141.366V21.2637ZM15.5557 24.999L25.1992 0.480469H31.1035L17.4238 34.0801H13.584L0 0.480469H6L15.5557 24.999ZM60.3135 34.0801H54.3613L51.8008 27.5996H37.3604L34.7773 34.0801H28.9219L42.7451 0.480469H46.5859L60.3135 34.0801ZM86.3457 23.666V0.480469H91.8652V34.0801H88.0254L70.2656 10.8936V34.0801H64.7461V0.480469H68.5859L86.3457 23.666ZM197.095 34.0801H191.143L188.582 27.5996H174.142L171.559 34.0801H165.703L179.526 0.480469H183.367L197.095 34.0801ZM214.103 0.480469C216.215 0.480469 218.071 0.912367 219.671 1.77637C221.271 2.60836 222.503 3.76046 223.367 5.23242C224.263 6.67226 224.711 8.32006 224.711 10.1758C224.711 12.1276 224.263 13.8238 223.367 15.2637C222.503 16.7037 221.271 17.824 219.671 18.624C218.335 19.2918 216.821 19.6797 215.129 19.79L226.919 34.0801H219.959L208.47 19.8242H207.047V34.0801H201.527V0.480469H214.103ZM243.779 0.480469C246.211 0.480469 248.467 0.912434 250.547 1.77637C252.627 2.60837 254.436 3.79213 255.972 5.32812C257.54 6.83208 258.755 8.60835 259.619 10.6562C260.483 12.6722 260.915 14.8803 260.915 17.2803C260.915 19.6482 260.483 21.8564 259.619 23.9043C258.755 25.9522 257.555 27.7443 256.02 29.2803C254.484 30.7842 252.676 31.968 250.596 32.832C248.516 33.664 246.275 34.0801 243.875 34.0801H231.012V0.480469H243.779ZM295.438 34.0801H289.486L286.926 27.5996H272.485L269.902 34.0801H264.047L277.87 0.480469H281.711L295.438 34.0801ZM236.531 29.04H243.636C245.94 29.04 247.956 28.5437 249.684 27.5518C251.443 26.5598 252.804 25.1837 253.764 23.4238C254.755 21.632 255.251 19.5681 255.251 17.2324C255.251 14.9284 254.756 12.8957 253.764 11.1357C252.772 9.37586 251.396 7.99979 249.636 7.00781C247.908 6.01588 245.908 5.52057 243.636 5.52051H236.531V29.04ZM39.2734 22.7998H49.9053L44.6123 9.4043L39.2734 22.7998ZM176.055 22.7998H186.687L181.394 9.4043L176.055 22.7998ZM274.398 22.7998H285.03L279.737 9.4043L274.398 22.7998ZM311.478 4.46387H306.006V18.7676H303.222V4.46387H297.75V1.96777H311.478V4.46387ZM320.813 12.3867L327.222 1.96777H329.142V18.7676H326.357V7.98828L321.798 15.5039H319.83L315.27 7.98828V18.7676H312.485V1.96777H314.405L320.813 12.3867ZM207.047 15.2637H213.814C215.51 15.2637 216.823 14.8318 217.751 13.9678C218.711 13.0719 219.191 11.8402 219.191 10.2725C219.191 8.86446 218.727 7.67973 217.799 6.71973C216.871 5.75994 215.559 5.28034 213.863 5.28027H207.047V15.2637Z" fill="var(--fill-0, white)"/>
</svg>
